<svg xmlns="http://www.w3.org/2000/svg" width="1080" height="2114" viewBox="0 0 1080 2114" font-family="Verdana, Geneva, sans-serif">
<defs>
<linearGradient id="bg" x1="0" y1="0" x2="0.4" y2="1"><stop offset="0" stop-color="#EEF1FE"/><stop offset="0.55" stop-color="#EAF2FB"/><stop offset="1" stop-color="#E7F7F3"/></linearGradient>
<linearGradient id="hdr" x1="0" y1="0" x2="1" y2="1"><stop offset="0" stop-color="#8B7CF6"/><stop offset="0.5" stop-color="#6CA8F4"/><stop offset="1" stop-color="#4FD0C9"/></linearGradient>
<filter id="sh" x="-20%" y="-20%" width="140%" height="160%"><feDropShadow dx="0" dy="4" stdDeviation="5" flood-color="#3A3F57" flood-opacity="0.13"/></filter>
<filter id="shx" x="-40%" y="-40%" width="180%" height="200%"><feDropShadow dx="0" dy="8" stdDeviation="14" flood-color="#3A3F57" flood-opacity="0.18"/></filter>
</defs>
<rect width="1080" height="2114" fill="url(#bg)"/>
<circle cx="60" cy="520" r="210" fill="#8B5CF6" opacity="0.07"/>
<circle cx="1010" cy="980" r="260" fill="#12B886" opacity="0.07"/>
<circle cx="90" cy="1640" r="230" fill="#3B82F6" opacity="0.06"/>
<circle cx="1000" cy="2160" r="240" fill="#6366F1" opacity="0.07"/>
<circle cx="980" cy="360" r="150" fill="#EC4899" opacity="0.06"/>
<rect x="60" y="44" width="960" height="168" rx="26" fill="url(#hdr)" filter="url(#shx)"/>
<text x="540.0" y="118" font-size="46" font-weight="800" fill="#fff" text-anchor="middle" letter-spacing="0.5">planning-harness</text>
<text x="540.0" y="156" font-size="19" fill="#EAF0FF" text-anchor="middle">A Claude Code plugin — how 13 hooks wire into your session</text>
<rect x="390.0" y="172" width="300" height="28" rx="14" fill="#ffffff" opacity="0.22"/>
<text x="540.0" y="191" font-size="14" font-weight="700" fill="#fff" text-anchor="middle" letter-spacing="2">FOLLOW THE ARROWS  ·  TOP TO BOTTOM</text>
<line x1="96" y1="268" x2="96" y2="1966" stroke="#C9D0EC" stroke-width="4"/>
<circle cx="96" cy="296" r="30" fill="#3B82F6" filter="url(#sh)"/>
<circle cx="96" cy="296" r="30" fill="none" stroke="#fff" stroke-width="3"/>
<text x="96" y="305" font-size="26" font-weight="800" fill="#fff" text-anchor="middle">1</text>
<text x="150" y="288" font-size="25" font-weight="800" fill="#1D4ED8">Session continuity — the loop</text>
<text x="150" y="314" font-size="16" fill="#727aa0">Your context survives across sessions, automatically.</text>
<rect x="150" y="346" width="300" height="64" rx="16" fill="#fff" stroke="#3B82F6" stroke-width="1.5" filter="url(#sh)"/>
<circle cx="184" cy="378.0" r="21" fill="#3B82F6"/>
<rect x="172" y="370.0" width="24" height="16" rx="3" fill="none" stroke="#fff" stroke-width="2"/><circle cx="177" cy="375.0" r="1.4" fill="#fff"/><circle cx="177" cy="381.0" r="1.4" fill="#fff"/><circle cx="183" cy="375.0" r="1.4" fill="#fff"/><circle cx="183" cy="381.0" r="1.4" fill="#fff"/><circle cx="189" cy="375.0" r="1.4" fill="#fff"/><circle cx="189" cy="381.0" r="1.4" fill="#fff"/>
<text x="214" y="374.0" font-size="19" font-weight="700" fill="#3A3F57">&quot;wrap up&quot;</text>
<text x="214" y="396.0" font-size="14.5" fill="#727aa0">what you type</text>
<line x1="450" y1="378.0" x2="518" y2="378.0" stroke="#3B82F6" stroke-width="2.6"/>
<path d="M517,372.0 L527,378.0 L517,384.0 Z" fill="#3B82F6"/>
<text x="489.0" y="369.0" font-size="13" font-weight="600" fill="#3B82F6" text-anchor="middle">fires</text>
<rect x="528" y="346" width="492" height="64" rx="16" fill="#DCEBFB" stroke="#3B82F6" stroke-width="1.5" filter="url(#sh)"/>
<text x="550" y="374.0" font-size="19" font-weight="700" fill="#3A3F57">end-session-handoff</text>
<text x="550" y="396.0" font-size="14.5" fill="#727aa0">writes a full handoff file</text>
<line x1="300" y1="410" x2="300" y2="458" stroke="#3B82F6" stroke-width="2.6"/>
<path d="M294,457 L300,467 L306,457 Z" fill="#3B82F6"/>
<rect x="310" y="427.0" width="53.2" height="22" rx="11" fill="#fff" stroke="#3B82F6" stroke-width="1"/>
<text x="315" y="442.5" font-size="13" font-weight="600" fill="#3B82F6">writes</text>
<rect x="150" y="468" width="470" height="64" rx="16" fill="#fff" stroke="#3B82F6" stroke-width="1.5" filter="url(#sh)"/>
<circle cx="184" cy="500.0" r="21" fill="#3B82F6"/>
<path d="M175,488.0 h12 l6,6 v18 h-18 z" fill="none" stroke="#fff" stroke-width="2" stroke-linejoin="round"/><path d="M187,488.0 v6 h6" fill="none" stroke="#fff" stroke-width="2" stroke-linejoin="round"/><line x1="179" y1="501.0" x2="189" y2="501.0" stroke="#fff" stroke-width="2"/><line x1="179" y1="506.0" x2="187" y2="506.0" stroke="#fff" stroke-width="2"/>
<text x="214" y="496.0" font-size="19" font-weight="700" fill="#3A3F57">.planning/resume-next-session.md</text>
<text x="214" y="518.0" font-size="14.5" fill="#727aa0">the saved context</text>
<line x1="300" y1="532" x2="300" y2="580" stroke="#1D4ED8" stroke-width="2.6"/>
<path d="M294,579 L300,589 L306,579 Z" fill="#1D4ED8"/>
<rect x="310" y="549.0" width="197.20000000000002" height="22" rx="11" fill="#fff" stroke="#1D4ED8" stroke-width="1"/>
<text x="315" y="564.5" font-size="13" font-weight="600" fill="#1D4ED8">next session reads it back</text>
<rect x="150" y="590" width="300" height="64" rx="16" fill="#fff" stroke="#3B82F6" stroke-width="1.5" filter="url(#sh)"/>
<circle cx="184" cy="622.0" r="21" fill="#3B82F6"/>
<path d="M177,613.0 L193,622.0 L177,631.0 Z" fill="#fff"/>
<text x="214" y="618.0" font-size="19" font-weight="700" fill="#3A3F57">new session</text>
<text x="214" y="640.0" font-size="14.5" fill="#727aa0">auto-starts</text>
<line x1="450" y1="622.0" x2="518" y2="622.0" stroke="#3B82F6" stroke-width="2.6"/>
<path d="M517,616.0 L527,622.0 L517,628.0 Z" fill="#3B82F6"/>
<text x="489.0" y="613.0" font-size="13" font-weight="600" fill="#3B82F6" text-anchor="middle">loads</text>
<rect x="528" y="590" width="492" height="64" rx="16" fill="#DCEBFB" stroke="#3B82F6" stroke-width="1.5" filter="url(#sh)"/>
<circle cx="562" cy="622.0" r="21" fill="#1D4ED8"/>
<path d="M553,622.0 l6,7 l12,-14" fill="none" stroke="#fff" stroke-width="3.2" stroke-linecap="round" stroke-linejoin="round"/>
<text x="592" y="618.0" font-size="19" font-weight="700" fill="#3A3F57">auto-load-resume-notes</text>
<text x="592" y="640.0" font-size="14.5" fill="#727aa0">you resume with full context — no re-explaining</text>
<circle cx="96" cy="758" r="30" fill="#8B5CF6" filter="url(#sh)"/>
<circle cx="96" cy="758" r="30" fill="none" stroke="#fff" stroke-width="3"/>
<text x="96" y="767" font-size="26" font-weight="800" fill="#fff" text-anchor="middle">2</text>
<text x="150" y="750" font-size="25" font-weight="800" fill="#6D28D9">Change-scope discipline — a guard</text>
<text x="150" y="776" font-size="16" fill="#727aa0">You only edit what you declared. Drift gets caught before it ships.</text>
<rect x="150" y="808" width="300" height="64" rx="16" fill="#fff" stroke="#8B5CF6" stroke-width="1.5" filter="url(#sh)"/>
<circle cx="184" cy="840.0" r="21" fill="#8B5CF6"/>
<path d="M174,850.0 l3,-9 l13,-13 l6,6 l-13,13 z" fill="none" stroke="#fff" stroke-width="2" stroke-linejoin="round"/><line x1="174" y1="850.0" x2="179" y2="845.0" stroke="#fff" stroke-width="2"/>
<text x="214" y="836.0" font-size="19" font-weight="700" fill="#3A3F57">you edit a file</text>
<text x="214" y="858.0" font-size="14.5" fill="#727aa0">any code change</text>
<line x1="450" y1="840.0" x2="526" y2="840.0" stroke="#8B5CF6" stroke-width="2.6"/>
<path d="M525,834.0 L535,840.0 L525,846.0 Z" fill="#8B5CF6"/>
<text x="493.0" y="831.0" font-size="13" font-weight="600" fill="#8B5CF6" text-anchor="middle">intercepts</text>
<rect x="536" y="808" width="484" height="64" rx="16" fill="#E7DEFB" stroke="#8B5CF6" stroke-width="1.5" filter="url(#sh)"/>
<text x="558" y="836.0" font-size="19" font-weight="700" fill="#3A3F57">change-scope-pre-edit-gate</text>
<text x="558" y="858.0" font-size="14.5" fill="#727aa0">checks it against .planning/scope.md</text>
<line x1="300" y1="872" x2="300" y2="920" stroke="#EC4899" stroke-width="2.6"/>
<path d="M294,919 L300,929 L306,919 Z" fill="#EC4899"/>
<rect x="310" y="889.0" width="197.20000000000002" height="22" rx="11" fill="#fff" stroke="#EC4899" stroke-width="1"/>
<text x="315" y="904.5" font-size="13" font-weight="600" fill="#EC4899">if the file isn&#x27;t in scope</text>
<rect x="150" y="930" width="300" height="64" rx="16" fill="#FBD2E4" stroke="#EC4899" stroke-width="1.5" filter="url(#sh)"/>
<circle cx="184" cy="962.0" r="21" fill="#EC4899"/>
<circle cx="184" cy="962.0" r="11" fill="none" stroke="#fff" stroke-width="2.4"/><line x1="177" y1="955.0" x2="191" y2="969.0" stroke="#fff" stroke-width="2.4"/>
<text x="214" y="958.0" font-size="19" font-weight="700" fill="#BE185D">BLOCKED</text>
<text x="214" y="980.0" font-size="14.5" fill="#727aa0">edit is stopped</text>
<line x1="450" y1="962.0" x2="518" y2="962.0" stroke="#EC4899" stroke-width="2.6"/>
<path d="M517,956.0 L527,962.0 L517,968.0 Z" fill="#EC4899"/>
<text x="489.0" y="953.0" font-size="13" font-weight="600" fill="#EC4899" text-anchor="middle">you fix it</text>
<rect x="528" y="930" width="492" height="64" rx="16" fill="#fff" stroke="#8B5CF6" stroke-width="1.5" filter="url(#sh)"/>
<circle cx="562" cy="962.0" r="21" fill="#8B5CF6"/>
<path d="M553,950.0 h12 l6,6 v18 h-18 z" fill="none" stroke="#fff" stroke-width="2" stroke-linejoin="round"/><path d="M565,950.0 v6 h6" fill="none" stroke="#fff" stroke-width="2" stroke-linejoin="round"/><line x1="557" y1="963.0" x2="567" y2="963.0" stroke="#fff" stroke-width="2"/><line x1="557" y1="968.0" x2="565" y2="968.0" stroke="#fff" stroke-width="2"/>
<text x="592" y="958.0" font-size="19" font-weight="700" fill="#3A3F57">add it to scope.md  →  edit proceeds</text>
<text x="592" y="980.0" font-size="14.5" fill="#727aa0">(or revert the stray change)</text>
<rect x="150" y="1038" width="280" height="56" rx="16" fill="#fff" stroke="#8B5CF6" stroke-width="1.5" filter="url(#sh)"/>
<circle cx="184" cy="1066.0" r="21" fill="#8B5CF6"/>
<line x1="172" y1="1066.0" x2="196" y2="1066.0" stroke="#fff" stroke-width="2.2"/><circle cx="184" cy="1066.0" r="5" fill="none" stroke="#fff" stroke-width="2.2"/>
<text x="214" y="1062.0" font-size="19" font-weight="700" fill="#3A3F57">git commit</text>
<text x="214" y="1084.0" font-size="14.5" fill="#727aa0">before it lands</text>
<line x1="430" y1="1066.0" x2="494" y2="1066.0" stroke="#8B5CF6" stroke-width="2.6"/>
<path d="M493,1060.0 L503,1066.0 L493,1072.0 Z" fill="#8B5CF6"/>
<text x="467.0" y="1057.0" font-size="13" font-weight="600" fill="#8B5CF6" text-anchor="middle">nudges</text>
<rect x="504" y="1038" width="516" height="56" rx="16" fill="#DFE3FE" stroke="#8B5CF6" stroke-width="1.5" filter="url(#sh)"/>
<text x="526" y="1062.0" font-size="19" font-weight="700" fill="#3A3F57">change-scope-reminder</text>
<text x="526" y="1084.0" font-size="14.5" fill="#727aa0">audit the diff hunk-by-hunk, drop unrelated drift</text>
<circle cx="96" cy="1198" r="30" fill="#12B886" filter="url(#sh)"/>
<circle cx="96" cy="1198" r="30" fill="none" stroke="#fff" stroke-width="3"/>
<text x="96" y="1207" font-size="26" font-weight="800" fill="#fff" text-anchor="middle">3</text>
<text x="150" y="1190" font-size="25" font-weight="800" fill="#0B7C5B">Plan tracking &amp; completion</text>
<text x="150" y="1216" font-size="16" fill="#727aa0">“Done” has to match the plan. The final sign-off stays yours.</text>
<rect x="150" y="1248" width="870" height="64" rx="16" fill="#D1F0E6" stroke="#12B886" stroke-width="1.5" filter="url(#sh)"/>
<circle cx="184" cy="1280.0" r="21" fill="#12B886"/>
<path d="M175,1268.0 h12 l6,6 v18 h-18 z" fill="none" stroke="#fff" stroke-width="2" stroke-linejoin="round"/><path d="M187,1268.0 v6 h6" fill="none" stroke="#fff" stroke-width="2" stroke-linejoin="round"/><line x1="179" y1="1281.0" x2="189" y2="1281.0" stroke="#fff" stroke-width="2"/><line x1="179" y1="1286.0" x2="187" y2="1286.0" stroke="#fff" stroke-width="2"/>
<text x="214" y="1276.0" font-size="19" font-weight="700" fill="#3A3F57">.planning/plan.md   —   [ ] N.M steps   ·   [ ] 99.0</text>
<text x="214" y="1298.0" font-size="14.5" fill="#727aa0">the live checklist every guard reads</text>
<rect x="150" y="1356" width="230" height="64" rx="16" fill="#fff" stroke="#12B886" stroke-width="1.5" filter="url(#sh)"/>
<circle cx="184" cy="1388.0" r="21" fill="#12B886"/>
<rect x="172" y="1380.0" width="24" height="16" rx="3" fill="none" stroke="#fff" stroke-width="2"/><circle cx="177" cy="1385.0" r="1.4" fill="#fff"/><circle cx="177" cy="1391.0" r="1.4" fill="#fff"/><circle cx="183" cy="1385.0" r="1.4" fill="#fff"/><circle cx="183" cy="1391.0" r="1.4" fill="#fff"/><circle cx="189" cy="1385.0" r="1.4" fill="#fff"/><circle cx="189" cy="1391.0" r="1.4" fill="#fff"/>
<text x="214" y="1384.0" font-size="19" font-weight="700" fill="#3A3F57">&quot;it&#x27;s done&quot;</text>
<text x="214" y="1406.0" font-size="14.5" fill="#727aa0">you claim it</text>
<line x1="380" y1="1388.0" x2="440" y2="1388.0" stroke="#12B886" stroke-width="2.6"/>
<path d="M439,1382.0 L449,1388.0 L439,1394.0 Z" fill="#12B886"/>
<text x="415.0" y="1379.0" font-size="13" font-weight="600" fill="#12B886" text-anchor="middle">checks</text>
<rect x="450" y="1356" width="360" height="64" rx="16" fill="#fff" stroke="#12B886" stroke-width="1.5" filter="url(#sh)"/>
<text x="472" y="1394.0" font-size="19" font-weight="700" fill="#3A3F57">completion-claim-guard</text>
<line x1="810" y1="1388.0" x2="870" y2="1388.0" stroke="#EC4899" stroke-width="2.6"/>
<path d="M869,1382.0 L879,1388.0 L869,1394.0 Z" fill="#EC4899"/>
<text x="845.0" y="1379.0" font-size="13" font-weight="600" fill="#EC4899" text-anchor="middle">if open</text>
<rect x="880" y="1356" width="140" height="64" rx="16" fill="#FBD2E4" stroke="#EC4899" stroke-width="1.5" filter="url(#sh)"/>
<circle cx="914" cy="1388.0" r="21" fill="#EC4899"/>
<circle cx="914" cy="1388.0" r="11" fill="none" stroke="#fff" stroke-width="2.4"/><line x1="907" y1="1381.0" x2="921" y2="1395.0" stroke="#fff" stroke-width="2.4"/>
<text x="944" y="1384.0" font-size="19" font-weight="700" fill="#BE185D">BLOCKED</text>
<text x="944" y="1406.0" font-size="14.5" fill="#727aa0">tick / fix</text>
<rect x="150" y="1464" width="300" height="64" rx="16" fill="#fff" stroke="#12B886" stroke-width="1.5" filter="url(#sh)"/>
<circle cx="184" cy="1496.0" r="21" fill="#12B886"/>
<path d="M174,1506.0 l3,-9 l13,-13 l6,6 l-13,13 z" fill="none" stroke="#fff" stroke-width="2" stroke-linejoin="round"/><line x1="174" y1="1506.0" x2="179" y2="1501.0" stroke="#fff" stroke-width="2"/>
<text x="214" y="1492.0" font-size="19" font-weight="700" fill="#3A3F57">flip the 99.0 box</text>
<text x="214" y="1514.0" font-size="14.5" fill="#727aa0">mark plan complete</text>
<line x1="450" y1="1496.0" x2="530" y2="1496.0" stroke="#0B7C5B" stroke-width="2.6"/>
<path d="M529,1490.0 L539,1496.0 L529,1502.0 Z" fill="#0B7C5B"/>
<text x="495.0" y="1487.0" font-size="13" font-weight="600" fill="#0B7C5B" text-anchor="middle">human-only</text>
<rect x="540" y="1464" width="480" height="64" rx="16" fill="#fff" stroke="#12B886" stroke-width="1.5" filter="url(#sh)"/>
<text x="562" y="1492.0" font-size="19" font-weight="700" fill="#3A3F57">plan-complete-flip-guard</text>
<text x="562" y="1514.0" font-size="14.5" fill="#727aa0">only you may flip it — never the agent</text>
<rect x="150" y="1572" width="250" height="64" rx="16" fill="#fff" stroke="#12B886" stroke-width="1.5" filter="url(#sh)"/>
<circle cx="184" cy="1604.0" r="21" fill="#0B7C5B"/>
<path d="M175,1604.0 l6,7 l12,-14" fill="none" stroke="#fff" stroke-width="3.2" stroke-linecap="round" stroke-linejoin="round"/>
<text x="214" y="1610.0" font-size="19" font-weight="700" fill="#3A3F57">once you OK it</text>
<line x1="400" y1="1604.0" x2="460" y2="1604.0" stroke="#12B886" stroke-width="2.6"/>
<path d="M459,1598.0 L469,1604.0 L459,1610.0 Z" fill="#12B886"/>
<text x="435.0" y="1595.0" font-size="13" font-weight="600" fill="#12B886" text-anchor="middle">then</text>
<rect x="470" y="1572" width="360" height="64" rx="16" fill="#fff" stroke="#12B886" stroke-width="1.5" filter="url(#sh)"/>
<text x="492" y="1610.0" font-size="19" font-weight="700" fill="#3A3F57">plan-completion-detector</text>
<line x1="830" y1="1604.0" x2="890" y2="1604.0" stroke="#0B7C5B" stroke-width="2.6"/>
<path d="M889,1598.0 L899,1604.0 L889,1610.0 Z" fill="#0B7C5B"/>
<rect x="900" y="1572" width="120" height="64" rx="16" fill="#D1F0E6" stroke="#12B886" stroke-width="1.5" filter="url(#sh)"/>
<circle cx="934" cy="1604.0" r="21" fill="#12B886"/>
<path d="M923,1599.0 l11,-6 l11,6 v12 l-11,6 l-11,-6 z" fill="none" stroke="#fff" stroke-width="2" stroke-linejoin="round"/><path d="M923,1599.0 l11,6 l11,-6 M934,1605.0 v12" fill="none" stroke="#fff" stroke-width="2" stroke-linejoin="round"/>
<text x="964" y="1600.0" font-size="19" font-weight="700" fill="#0B7C5B">archive/</text>
<text x="964" y="1622.0" font-size="14.5" fill="#727aa0">auto-filed</text>
<circle cx="96" cy="1736" r="30" fill="#6366F1" filter="url(#sh)"/>
<circle cx="96" cy="1736" r="30" fill="none" stroke="#fff" stroke-width="3"/>
<text x="96" y="1745" font-size="26" font-weight="800" fill="#fff" text-anchor="middle">4</text>
<text x="150" y="1728" font-size="25" font-weight="800" fill="#4338CA">Efficiency &amp; quality nudges</text>
<text x="150" y="1754" font-size="16" fill="#727aa0">Lightweight reminders — they never block, just keep you sharp.</text>
<rect x="150.0" y="1782" width="420.0" height="64" rx="16" fill="#DFE3FE" stroke="#6366F1" stroke-width="1.5" filter="url(#sh)"/>
<circle cx="182.0" cy="1814.0" r="21" fill="#6366F1"/>
<rect x="170.0" y="1806.0" width="24" height="16" rx="3" fill="none" stroke="#fff" stroke-width="2"/><circle cx="175.0" cy="1811.0" r="1.4" fill="#fff"/><circle cx="175.0" cy="1817.0" r="1.4" fill="#fff"/><circle cx="181.0" cy="1811.0" r="1.4" fill="#fff"/><circle cx="181.0" cy="1817.0" r="1.4" fill="#fff"/><circle cx="187.0" cy="1811.0" r="1.4" fill="#fff"/><circle cx="187.0" cy="1817.0" r="1.4" fill="#fff"/>
<text x="212.0" y="1810.0" font-size="17.5" font-weight="700" fill="#4338CA">intellectual-honesty</text>
<text x="212.0" y="1832.0" font-size="13.5" fill="#727aa0">verify claims · push back · find the real cause</text>
<rect x="600.0" y="1782" width="420.0" height="64" rx="16" fill="#DFE3FE" stroke="#6366F1" stroke-width="1.5" filter="url(#sh)"/>
<circle cx="632.0" cy="1814.0" r="21" fill="#6366F1"/>
<rect x="620.0" y="1806.0" width="24" height="16" rx="3" fill="none" stroke="#fff" stroke-width="2"/><circle cx="625.0" cy="1811.0" r="1.4" fill="#fff"/><circle cx="625.0" cy="1817.0" r="1.4" fill="#fff"/><circle cx="631.0" cy="1811.0" r="1.4" fill="#fff"/><circle cx="631.0" cy="1817.0" r="1.4" fill="#fff"/><circle cx="637.0" cy="1811.0" r="1.4" fill="#fff"/><circle cx="637.0" cy="1817.0" r="1.4" fill="#fff"/>
<text x="662.0" y="1810.0" font-size="17.5" font-weight="700" fill="#4338CA">tool-acquisition</text>
<text x="662.0" y="1832.0" font-size="13.5" fill="#727aa0">never “I can&#x27;t” — probe, install, then use it</text>
<rect x="150.0" y="1876" width="420.0" height="64" rx="16" fill="#DFE3FE" stroke="#6366F1" stroke-width="1.5" filter="url(#sh)"/>
<circle cx="182.0" cy="1908.0" r="21" fill="#6366F1"/>
<path d="M172.0,1918.0 l3,-9 l13,-13 l6,6 l-13,13 z" fill="none" stroke="#fff" stroke-width="2" stroke-linejoin="round"/><line x1="172.0" y1="1918.0" x2="177.0" y2="1913.0" stroke="#fff" stroke-width="2"/>
<text x="212.0" y="1904.0" font-size="17.5" font-weight="700" fill="#4338CA">secrets-discipline</text>
<text x="212.0" y="1926.0" font-size="13.5" fill="#727aa0">name a secret, never echo its value</text>
<rect x="600.0" y="1876" width="420.0" height="64" rx="16" fill="#DFE3FE" stroke="#6366F1" stroke-width="1.5" filter="url(#sh)"/>
<circle cx="632.0" cy="1908.0" r="21" fill="#6366F1"/>
<line x1="620.0" y1="1908.0" x2="644.0" y2="1908.0" stroke="#fff" stroke-width="2.2"/><circle cx="632.0" cy="1908.0" r="5" fill="none" stroke="#fff" stroke-width="2.2"/>
<text x="662.0" y="1904.0" font-size="17.5" font-weight="700" fill="#4338CA">git-mv-unstaged-guard</text>
<text x="662.0" y="1926.0" font-size="13.5" fill="#727aa0">git mv of an edited file stages the OLD blob</text>
<rect x="60" y="1992" width="960" height="78" rx="20" fill="#3A3F57" filter="url(#shx)"/>
<text x="90" y="2026" font-size="15" fill="#AEB6D9">install in Claude Code</text>
<text x="90" y="2052" font-size="18" font-weight="700" fill="#fff" font-family="monospace">/plugin marketplace add dr-snob/claude-planning-harness</text>
<circle cx="976" cy="2031" r="22" fill="#12B886"/>
<path d="M967,2031 l6,7 l12,-14" fill="none" stroke="#fff" stroke-width="3.2" stroke-linecap="round" stroke-linejoin="round"/>
</svg>