<?xml version="1.0" encoding="UTF-8" standalone="no"?>
<!DOCTYPE svg PUBLIC "-//W3C//DTD SVG 1.1//EN"
 "http://www.w3.org/Graphics/SVG/1.1/DTD/svg11.dtd">
<!-- Generated by graphviz version 15.0.0 (20260523.1842)
 -->
<!-- Title: planning_harness Pages: 1 -->
<svg width="2001pt" height="974pt"
 viewBox="0.00 0.00 2001.00 974.00" xmlns="http://www.w3.org/2000/svg" xmlns:xlink="http://www.w3.org/1999/xlink">
<g id="graph0" class="graph" transform="scale(1 1) rotate(0) translate(25.2 949.01)">
<title>planning_harness</title>
<polygon fill="#fbf9f4" stroke="none" points="-25.2,25.2 -25.2,-949.01 1976.2,-949.01 1976.2,25.2 -25.2,25.2"/>
<g id="clust1" class="cluster">
<title>cluster_cont</title>
<path fill="#f6f2ea" stroke="#cbb89e" d="M20,-460.27C20,-460.27 426,-460.27 426,-460.27 432,-460.27 438,-466.27 438,-472.27 438,-472.27 438,-902.92 438,-902.92 438,-908.92 432,-914.92 426,-914.92 426,-914.92 20,-914.92 20,-914.92 14,-914.92 8,-908.92 8,-902.92 8,-902.92 8,-472.27 8,-472.27 8,-466.27 14,-460.27 20,-460.27"/>
<text xml:space="preserve" text-anchor="start" x="16" y="-899.57" font-family="Helvetica,sans-Serif" font-weight="bold" font-size="13.00" fill="#4f7a6a">1 · SESSION CONTINUITY</text>
<text xml:space="preserve" text-anchor="start" x="179.5" y="-899.57" font-family="Helvetica,sans-Serif" font-size="13.00" fill="#4f7a6a"> &#160;</text>
<text xml:space="preserve" text-anchor="start" x="187" y="-899.57" font-family="Helvetica,sans-Serif" font-size="13.00" fill="#6b6358">— your context survives across sessions</text>
</g>
<g id="clust2" class="cluster">
<title>cluster_scope</title>
<path fill="#f7efea" stroke="#cbb89e" d="M458,-87C458,-87 845,-87 845,-87 851,-87 857,-93 857,-99 857,-99 857,-902.92 857,-902.92 857,-908.92 851,-914.92 845,-914.92 845,-914.92 458,-914.92 458,-914.92 452,-914.92 446,-908.92 446,-902.92 446,-902.92 446,-99 446,-99 446,-93 452,-87 458,-87"/>
<text xml:space="preserve" text-anchor="start" x="454" y="-899.57" font-family="Helvetica,sans-Serif" font-weight="bold" font-size="13.00" fill="#b26a4a">2 · CHANGE&#45;SCOPE DISCIPLINE</text>
<text xml:space="preserve" text-anchor="start" x="661" y="-899.57" font-family="Helvetica,sans-Serif" font-size="13.00" fill="#b26a4a"> &#160;</text>
<text xml:space="preserve" text-anchor="start" x="668.5" y="-899.57" font-family="Helvetica,sans-Serif" font-size="13.00" fill="#6b6358">— only edit what you declared</text>
</g>
<g id="clust3" class="cluster">
<title>cluster_plan</title>
<path fill="#f6f2ea" stroke="#cbb89e" d="M877,-274.52C877,-274.52 1477,-274.52 1477,-274.52 1483,-274.52 1489,-280.52 1489,-286.52 1489,-286.52 1489,-619.52 1489,-619.52 1489,-625.52 1483,-631.52 1477,-631.52 1477,-631.52 877,-631.52 877,-631.52 871,-631.52 865,-625.52 865,-619.52 865,-619.52 865,-286.52 865,-286.52 865,-280.52 871,-274.52 877,-274.52"/>
<text xml:space="preserve" text-anchor="start" x="873" y="-616.17" font-family="Helvetica,sans-Serif" font-weight="bold" font-size="13.00" fill="#4f7a6a">3 · PLAN TRACKING &amp; COMPLETION</text>
<text xml:space="preserve" text-anchor="start" x="1107.75" y="-616.17" font-family="Helvetica,sans-Serif" font-size="13.00" fill="#4f7a6a"> &#160;</text>
<text xml:space="preserve" text-anchor="start" x="1115.25" y="-616.17" font-family="Helvetica,sans-Serif" font-size="13.00" fill="#6b6358">— “done” must match reality</text>
</g>
<g id="clust4" class="cluster">
<title>cluster_eff</title>
<path fill="#f7f1e2" stroke="#cbb89e" d="M1509,-8C1509,-8 1931,-8 1931,-8 1937,-8 1943,-14 1943,-20 1943,-20 1943,-903.81 1943,-903.81 1943,-909.81 1937,-915.81 1931,-915.81 1931,-915.81 1509,-915.81 1509,-915.81 1503,-915.81 1497,-909.81 1497,-903.81 1497,-903.81 1497,-20 1497,-20 1497,-14 1503,-8 1509,-8"/>
<text xml:space="preserve" text-anchor="start" x="1505" y="-900.46" font-family="Helvetica,sans-Serif" font-weight="bold" font-size="13.00" fill="#a8862e">4 · EFFICIENCY &amp; QUALITY NUDGES</text>
<text xml:space="preserve" text-anchor="start" x="1739" y="-900.46" font-family="Helvetica,sans-Serif" font-size="13.00" fill="#a8862e"> &#160;</text>
<text xml:space="preserve" text-anchor="start" x="1746.5" y="-900.46" font-family="Helvetica,sans-Serif" font-size="13.00" fill="#6b6358">— lightweight, never block</text>
</g>
<!-- t_wrap -->
<g id="node1" class="node">
<title>t_wrap</title>
<path fill="#efdfae" stroke="#a8862e" stroke-width="1.6" d="M242.33,-879.42C242.33,-879.42 193.67,-879.42 193.67,-879.42 187.67,-879.42 181.67,-873.42 181.67,-867.42 181.67,-867.42 181.67,-855.42 181.67,-855.42 181.67,-849.42 187.67,-843.42 193.67,-843.42 193.67,-843.42 242.33,-843.42 242.33,-843.42 248.33,-843.42 254.33,-849.42 254.33,-855.42 254.33,-855.42 254.33,-867.42 254.33,-867.42 254.33,-873.42 248.33,-879.42 242.33,-879.42"/>
<text xml:space="preserve" text-anchor="start" x="192.88" y="-862.97" font-family="Helvetica,sans-Serif" font-size="11.00">⌨ you type</text>
<text xml:space="preserve" text-anchor="start" x="191.75" y="-851.97" font-family="Helvetica,sans-Serif" font-weight="bold" font-size="11.00">“wrap up”</text>
</g>
<!-- h_hand -->
<g id="node2" class="node">
<title>h_hand</title>
<path fill="white" stroke="#4f7a6a" stroke-width="1.6" d="M270.08,-792.79C270.08,-792.79 165.92,-792.79 165.92,-792.79 159.92,-792.79 153.92,-786.79 153.92,-780.79 153.92,-780.79 153.92,-768.79 153.92,-768.79 153.92,-762.79 159.92,-756.79 165.92,-756.79 165.92,-756.79 270.08,-756.79 270.08,-756.79 276.08,-756.79 282.08,-762.79 282.08,-768.79 282.08,-768.79 282.08,-780.79 282.08,-780.79 282.08,-786.79 276.08,-792.79 270.08,-792.79"/>
<text xml:space="preserve" text-anchor="start" x="164" y="-771.34" font-family="Helvetica,sans-Serif" font-weight="bold" font-size="11.00">end&#45;session&#45;handoff</text>
</g>
<!-- t_wrap&#45;&gt;h_hand -->
<g id="edge1" class="edge">
<title>t_wrap&#45;&gt;h_hand</title>
<path fill="none" stroke="#9a9182" stroke-width="1.3" d="M218,-842.89C218,-831.2 218,-815.61 218,-802.41"/>
<polygon fill="#9a9182" stroke="#9a9182" stroke-width="1.3" points="220.63,-802.77 218,-795.27 215.38,-802.77 220.63,-802.77"/>
<text xml:space="preserve" text-anchor="middle" x="233.38" y="-813.99" font-family="Helvetica,sans-Serif" font-size="9.00" fill="#5f574b">triggers</text>
</g>
<!-- s_res -->
<g id="node3" class="node">
<title>s_res</title>
<polygon fill="#e6efe9" stroke="#4f7a6a" stroke-width="1.6" points="280.95,-706.15 149.05,-706.15 149.05,-670.15 286.95,-670.15 286.95,-700.15 280.95,-706.15"/>
<polyline fill="none" stroke="#4f7a6a" stroke-width="1.6" points="280.95,-706.15 280.95,-700.15"/>
<polyline fill="none" stroke="#4f7a6a" stroke-width="1.6" points="286.95,-700.15 280.95,-700.15"/>
<text xml:space="preserve" text-anchor="start" x="192.12" y="-689.7" font-family="Helvetica,sans-Serif" font-weight="bold" font-size="11.00">.planning/</text>
<text xml:space="preserve" text-anchor="start" x="159.12" y="-678.7" font-family="Helvetica,sans-Serif" font-size="11.00">resume&#45;next&#45;session.md</text>
</g>
<!-- h_hand&#45;&gt;s_res -->
<g id="edge2" class="edge">
<title>h_hand&#45;&gt;s_res</title>
<path fill="none" stroke="#9a9182" stroke-width="1.3" d="M218,-756.25C218,-744.56 218,-728.98 218,-715.77"/>
<polygon fill="#9a9182" stroke="#9a9182" stroke-width="1.3" points="220.63,-716.13 218,-708.63 215.38,-716.13 220.63,-716.13"/>
<text xml:space="preserve" text-anchor="middle" x="254" y="-728.24" font-family="Helvetica,sans-Serif" font-size="9.00" fill="#5f574b">writes the handoff</text>
</g>
<!-- h_load -->
<g id="node5" class="node">
<title>h_load</title>
<path fill="white" stroke="#4f7a6a" stroke-width="1.6" d="M398.7,-596.02C398.7,-596.02 277.3,-596.02 277.3,-596.02 271.3,-596.02 265.3,-590.02 265.3,-584.02 265.3,-584.02 265.3,-572.02 265.3,-572.02 265.3,-566.02 271.3,-560.02 277.3,-560.02 277.3,-560.02 398.7,-560.02 398.7,-560.02 404.7,-560.02 410.7,-566.02 410.7,-572.02 410.7,-572.02 410.7,-584.02 410.7,-584.02 410.7,-590.02 404.7,-596.02 398.7,-596.02"/>
<text xml:space="preserve" text-anchor="start" x="275.38" y="-574.57" font-family="Helvetica,sans-Serif" font-weight="bold" font-size="11.00">auto&#45;load&#45;resume&#45;notes</text>
</g>
<!-- s_res&#45;&gt;h_load -->
<g id="edge4" class="edge">
<title>s_res&#45;&gt;h_load</title>
<path fill="none" stroke="#4f7a6a" stroke-width="1.3" d="M237.55,-669.54C257.68,-651.39 289.2,-623 311.55,-602.85"/>
<polygon fill="#4f7a6a" stroke="#4f7a6a" stroke-width="1.3" points="313.19,-604.91 317,-597.94 309.67,-601.01 313.19,-604.91"/>
<text xml:space="preserve" text-anchor="middle" x="296.69" y="-640.72" font-family="Helvetica,sans-Serif" font-size="9.00" fill="#4f7a6a">reads it back</text>
</g>
<!-- t_new -->
<g id="node4" class="node">
<title>t_new</title>
<path fill="#efdfae" stroke="#a8862e" stroke-width="1.6" d="M398.58,-707.04C398.58,-707.04 321.42,-707.04 321.42,-707.04 315.42,-707.04 309.42,-701.04 309.42,-695.04 309.42,-695.04 309.42,-681.27 309.42,-681.27 309.42,-675.27 315.42,-669.27 321.42,-669.27 321.42,-669.27 398.58,-669.27 398.58,-669.27 404.58,-669.27 410.58,-675.27 410.58,-681.27 410.58,-681.27 410.58,-695.04 410.58,-695.04 410.58,-701.04 404.58,-707.04 398.58,-707.04"/>
<text xml:space="preserve" text-anchor="start" x="319.5" y="-690.03" font-family="Helvetica,sans-Serif" font-size="11.00">▶ a new session</text>
<text xml:space="preserve" text-anchor="start" x="344.25" y="-678.03" font-family="Helvetica,sans-Serif" font-size="11.00">begins</text>
</g>
<!-- t_new&#45;&gt;h_load -->
<g id="edge3" class="edge">
<title>t_new&#45;&gt;h_load</title>
<path fill="none" stroke="#9a9182" stroke-width="1.3" d="M356.27,-668.81C352.75,-651.51 347.43,-625.39 343.44,-605.77"/>
<polygon fill="#9a9182" stroke="#9a9182" stroke-width="1.3" points="346.06,-605.49 342,-598.66 340.92,-606.53 346.06,-605.49"/>
<text xml:space="preserve" text-anchor="middle" x="384.51" y="-640.72" font-family="Helvetica,sans-Serif" font-size="9.00" fill="#5f574b">on SessionStart</text>
</g>
<!-- o_ctx -->
<g id="node6" class="node">
<title>o_ctx</title>
<path fill="#ede7da" stroke="#cbb89e" stroke-width="1.6" d="M412.2,-510.27C412.2,-510.27 263.8,-510.27 263.8,-510.27 257.8,-510.27 251.8,-504.27 251.8,-498.27 251.8,-498.27 251.8,-486.27 251.8,-486.27 251.8,-480.27 257.8,-474.27 263.8,-474.27 263.8,-474.27 412.2,-474.27 412.2,-474.27 418.2,-474.27 424.2,-480.27 424.2,-486.27 424.2,-486.27 424.2,-498.27 424.2,-498.27 424.2,-504.27 418.2,-510.27 412.2,-510.27"/>
<text xml:space="preserve" text-anchor="start" x="275" y="-493.82" font-family="Helvetica,sans-Serif" font-size="11.00">next session resumes with</text>
<text xml:space="preserve" text-anchor="start" x="261.88" y="-482.82" font-family="Helvetica,sans-Serif" font-weight="bold" font-size="11.00">full context</text>
<text xml:space="preserve" text-anchor="start" x="320.38" y="-482.82" font-family="Helvetica,sans-Serif" font-size="11.00"> — no re&#45;explaining</text>
</g>
<!-- h_load&#45;&gt;o_ctx -->
<g id="edge5" class="edge">
<title>h_load&#45;&gt;o_ctx</title>
<path fill="none" stroke="#9a9182" stroke-width="1.3" d="M338,-559.26C338,-547.93 338,-533.03 338,-520.26"/>
<polygon fill="#9a9182" stroke="#9a9182" stroke-width="1.3" points="340.63,-520.47 338,-512.97 335.38,-520.47 340.63,-520.47"/>
</g>
<!-- t_edit -->
<g id="node7" class="node">
<title>t_edit</title>
<path fill="#efdfae" stroke="#a8862e" stroke-width="1.6" d="M547.33,-417.28C547.33,-417.28 492.67,-417.28 492.67,-417.28 486.67,-417.28 480.67,-411.28 480.67,-405.28 480.67,-405.28 480.67,-391.51 480.67,-391.51 480.67,-385.51 486.67,-379.51 492.67,-379.51 492.67,-379.51 547.33,-379.51 547.33,-379.51 553.33,-379.51 559.33,-385.51 559.33,-391.51 559.33,-391.51 559.33,-405.28 559.33,-405.28 559.33,-411.28 553.33,-417.28 547.33,-417.28"/>
<text xml:space="preserve" text-anchor="start" x="490.75" y="-400.27" font-family="Helvetica,sans-Serif" font-size="11.00">✎ you edit a</text>
<text xml:space="preserve" text-anchor="start" x="500.12" y="-388.27" font-family="Helvetica,sans-Serif" font-size="11.00">code file</text>
</g>
<!-- o_ctx&#45;&gt;t_edit -->
<!-- h_gate -->
<g id="node8" class="node">
<title>h_gate</title>
<path fill="white" stroke="#b26a4a" stroke-width="1.6" d="M612.08,-324.52C612.08,-324.52 471.92,-324.52 471.92,-324.52 465.92,-324.52 459.92,-318.52 459.92,-312.52 459.92,-312.52 459.92,-300.52 459.92,-300.52 459.92,-294.52 465.92,-288.52 471.92,-288.52 471.92,-288.52 612.08,-288.52 612.08,-288.52 618.08,-288.52 624.08,-294.52 624.08,-300.52 624.08,-300.52 624.08,-312.52 624.08,-312.52 624.08,-318.52 618.08,-324.52 612.08,-324.52"/>
<text xml:space="preserve" text-anchor="start" x="470" y="-303.07" font-family="Helvetica,sans-Serif" font-weight="bold" font-size="11.00">change&#45;scope&#45;pre&#45;edit&#45;gate</text>
</g>
<!-- t_edit&#45;&gt;h_gate -->
<g id="edge6" class="edge">
<title>t_edit&#45;&gt;h_gate</title>
<path fill="none" stroke="#9a9182" stroke-width="1.3" d="M524.56,-378.77C527.72,-365.86 531.97,-348.49 535.49,-334.13"/>
<polygon fill="#9a9182" stroke="#9a9182" stroke-width="1.3" points="537.97,-335.02 537.2,-327.11 532.87,-333.77 537.97,-335.02"/>
<text xml:space="preserve" text-anchor="middle" x="552.19" y="-345.72" font-family="Helvetica,sans-Serif" font-size="9.00" fill="#5f574b">intercepts</text>
</g>
<!-- s_scope -->
<g id="node9" class="node">
<title>s_scope</title>
<polygon fill="#f3e6de" stroke="#b26a4a" stroke-width="1.6" points="579.96,-233.9 472.05,-233.9 472.05,-191.38 585.96,-191.38 585.96,-227.9 579.96,-233.9"/>
<polyline fill="none" stroke="#b26a4a" stroke-width="1.6" points="579.96,-233.9 579.96,-227.9"/>
<polyline fill="none" stroke="#b26a4a" stroke-width="1.6" points="585.96,-227.9 579.96,-227.9"/>
<text xml:space="preserve" text-anchor="start" x="503.12" y="-218.69" font-family="Helvetica,sans-Serif" font-weight="bold" font-size="11.00">.planning/</text>
<text xml:space="preserve" text-anchor="start" x="505.75" y="-207.69" font-family="Helvetica,sans-Serif" font-size="11.00">scope.md</text>
<text xml:space="preserve" text-anchor="start" x="482.12" y="-198.59" font-family="Helvetica,sans-Serif" font-size="9.00">files allowed to change</text>
</g>
<!-- h_gate&#45;&gt;s_scope -->
<g id="edge7" class="edge">
<title>h_gate&#45;&gt;s_scope</title>
<path fill="none" stroke="#9a9182" stroke-width="1.3" stroke-dasharray="5,2" d="M539.49,-287.8C537.73,-275.31 535.32,-258.28 533.25,-243.69"/>
<polygon fill="#9a9182" stroke="#9a9182" stroke-width="1.3" points="535.88,-243.53 532.23,-236.47 530.68,-244.26 535.88,-243.53"/>
<text xml:space="preserve" text-anchor="middle" x="550.53" y="-257.97" font-family="Helvetica,sans-Serif" font-size="9.00" fill="#5f574b">checks</text>
</g>
<!-- b_scope -->
<g id="node10" class="node">
<title>b_scope</title>
<polygon fill="#9e3b2e" stroke="black" stroke-width="1.6" points="736.22,-202.65 736.22,-222.64 698.6,-236.77 645.4,-236.77 607.78,-222.64 607.78,-202.65 645.4,-188.52 698.6,-188.52 736.22,-202.65"/>
<text xml:space="preserve" text-anchor="start" x="644.25" y="-213.19" font-family="Helvetica,sans-Serif" font-weight="bold" font-size="11.00" fill="white">BLOCKED</text>
<text xml:space="preserve" text-anchor="start" x="640.12" y="-204.09" font-family="Helvetica,sans-Serif" font-size="9.00" fill="#f2d9d2">file not in scope</text>
</g>
<!-- h_gate&#45;&gt;b_scope -->
<g id="edge8" class="edge">
<title>h_gate&#45;&gt;b_scope</title>
<path fill="none" stroke="#9e3b2e" stroke-width="1.3" d="M567.07,-287.8C585.86,-274.52 611.92,-256.1 633.38,-240.94"/>
<polygon fill="#9e3b2e" stroke="#9e3b2e" stroke-width="1.3" points="634.83,-243.13 639.44,-236.65 631.8,-238.84 634.83,-243.13"/>
<text xml:space="preserve" text-anchor="middle" x="642.77" y="-257.97" font-family="Helvetica,sans-Serif" font-size="9.00" fill="#9e3b2e">if outside scope</text>
</g>
<!-- o_fix -->
<g id="node11" class="node">
<title>o_fix</title>
<path fill="#ede7da" stroke="#cbb89e" stroke-width="1.6" d="M734.96,-138.77C734.96,-138.77 609.04,-138.77 609.04,-138.77 603.04,-138.77 597.04,-132.77 597.04,-126.77 597.04,-126.77 597.04,-113 597.04,-113 597.04,-107 603.04,-101 609.04,-101 609.04,-101 734.96,-101 734.96,-101 740.96,-101 746.96,-107 746.96,-113 746.96,-113 746.96,-126.77 746.96,-126.77 746.96,-132.77 740.96,-138.77 734.96,-138.77"/>
<text xml:space="preserve" text-anchor="start" x="628.12" y="-124.01" font-family="Helvetica,sans-Serif" font-size="11.00">add it to scope.md</text>
<text xml:space="preserve" text-anchor="start" x="607.12" y="-109.76" font-family="Helvetica,sans-Serif" font-size="11.00">(or revert) → edit proceeds</text>
</g>
<!-- b_scope&#45;&gt;o_fix -->
<g id="edge9" class="edge">
<title>b_scope&#45;&gt;o_fix</title>
<path fill="none" stroke="#9a9182" stroke-width="1.3" d="M672,-187.8C672,-175.86 672,-161.34 672,-148.88"/>
<polygon fill="#9a9182" stroke="#9a9182" stroke-width="1.3" points="674.63,-148.88 672,-141.38 669.38,-148.88 674.63,-148.88"/>
</g>
<!-- o_fix&#45;&gt;s_scope -->
<g id="edge10" class="edge">
<title>o_fix&#45;&gt;s_scope</title>
<path fill="none" stroke="#9a9182" stroke-width="1.3" stroke-dasharray="5,2" d="M642.82,-139.38C633.1,-145.54 622.21,-152.45 612.25,-158.77 598.35,-167.59 583.15,-177.24 569.59,-185.86"/>
<polygon fill="#9a9182" stroke="#9a9182" stroke-width="1.3" points="568.4,-183.5 563.48,-189.74 571.21,-187.93 568.4,-183.5"/>
<text xml:space="preserve" text-anchor="middle" x="639.62" y="-159.97" font-family="Helvetica,sans-Serif" font-size="9.00" fill="#5f574b">you declare it</text>
</g>
<!-- t_commit -->
<g id="node12" class="node">
<title>t_commit</title>
<path fill="#efdfae" stroke="#a8862e" stroke-width="1.6" d="M800.58,-879.42C800.58,-879.42 735.42,-879.42 735.42,-879.42 729.42,-879.42 723.42,-873.42 723.42,-867.42 723.42,-867.42 723.42,-855.42 723.42,-855.42 723.42,-849.42 729.42,-843.42 735.42,-843.42 735.42,-843.42 800.58,-843.42 800.58,-843.42 806.58,-843.42 812.58,-849.42 812.58,-855.42 812.58,-855.42 812.58,-867.42 812.58,-867.42 812.58,-873.42 806.58,-879.42 800.58,-879.42"/>
<text xml:space="preserve" text-anchor="start" x="733.5" y="-858.72" font-family="Helvetica,sans-Serif" font-size="11.00">⌨ </text>
<text xml:space="preserve" text-anchor="start" x="747" y="-858.72" font-family="Helvetica,sans-Serif" font-weight="bold" font-size="11.00">git commit</text>
</g>
<!-- h_csr -->
<g id="node13" class="node">
<title>h_csr</title>
<path fill="white" stroke="#b26a4a" stroke-width="1.6" d="M828.33,-792.79C828.33,-792.79 707.67,-792.79 707.67,-792.79 701.67,-792.79 695.67,-786.79 695.67,-780.79 695.67,-780.79 695.67,-768.79 695.67,-768.79 695.67,-762.79 701.67,-756.79 707.67,-756.79 707.67,-756.79 828.33,-756.79 828.33,-756.79 834.33,-756.79 840.33,-762.79 840.33,-768.79 840.33,-768.79 840.33,-780.79 840.33,-780.79 840.33,-786.79 834.33,-792.79 828.33,-792.79"/>
<text xml:space="preserve" text-anchor="start" x="705.75" y="-771.34" font-family="Helvetica,sans-Serif" font-weight="bold" font-size="11.00">change&#45;scope&#45;reminder</text>
</g>
<!-- t_commit&#45;&gt;h_csr -->
<g id="edge11" class="edge">
<title>t_commit&#45;&gt;h_csr</title>
<path fill="none" stroke="#9a9182" stroke-width="1.3" d="M768,-842.89C768,-831.2 768,-815.61 768,-802.41"/>
<polygon fill="#9a9182" stroke="#9a9182" stroke-width="1.3" points="770.63,-802.77 768,-795.27 765.38,-802.77 770.63,-802.77"/>
<text xml:space="preserve" text-anchor="middle" x="783.38" y="-813.99" font-family="Helvetica,sans-Serif" font-size="9.00" fill="#5f574b">triggers</text>
</g>
<!-- o_audit -->
<g id="node14" class="node">
<title>o_audit</title>
<path fill="#ede7da" stroke="#cbb89e" stroke-width="1.6" d="M830.96,-706.15C830.96,-706.15 705.04,-706.15 705.04,-706.15 699.04,-706.15 693.04,-700.15 693.04,-694.15 693.04,-694.15 693.04,-682.15 693.04,-682.15 693.04,-676.15 699.04,-670.15 705.04,-670.15 705.04,-670.15 830.96,-670.15 830.96,-670.15 836.96,-670.15 842.96,-676.15 842.96,-682.15 842.96,-682.15 842.96,-694.15 842.96,-694.15 842.96,-700.15 836.96,-706.15 830.96,-706.15"/>
<text xml:space="preserve" text-anchor="start" x="703.12" y="-691.15" font-family="Helvetica,sans-Serif" font-size="11.00">audit the diff hunk&#45;by&#45;hunk,</text>
<text xml:space="preserve" text-anchor="start" x="722.62" y="-679.15" font-family="Helvetica,sans-Serif" font-size="11.00">drop unrelated drift</text>
</g>
<!-- h_csr&#45;&gt;o_audit -->
<g id="edge12" class="edge">
<title>h_csr&#45;&gt;o_audit</title>
<path fill="none" stroke="#9a9182" stroke-width="1.3" d="M768,-756.25C768,-744.56 768,-728.98 768,-715.77"/>
<polygon fill="#9a9182" stroke="#9a9182" stroke-width="1.3" points="770.63,-716.13 768,-708.63 765.38,-716.13 770.63,-716.13"/>
</g>
<!-- t_done -->
<g id="node18" class="node">
<title>t_done</title>
<path fill="#efdfae" stroke="#a8862e" stroke-width="1.6" d="M1103.45,-596.02C1103.45,-596.02 1052.55,-596.02 1052.55,-596.02 1046.55,-596.02 1040.55,-590.02 1040.55,-584.02 1040.55,-584.02 1040.55,-572.02 1040.55,-572.02 1040.55,-566.02 1046.55,-560.02 1052.55,-560.02 1052.55,-560.02 1103.45,-560.02 1103.45,-560.02 1109.45,-560.02 1115.45,-566.02 1115.45,-572.02 1115.45,-572.02 1115.45,-584.02 1115.45,-584.02 1115.45,-590.02 1109.45,-596.02 1103.45,-596.02"/>
<text xml:space="preserve" text-anchor="start" x="1054.75" y="-579.57" font-family="Helvetica,sans-Serif" font-size="11.00">⌨ you say</text>
<text xml:space="preserve" text-anchor="start" x="1050.62" y="-568.57" font-family="Helvetica,sans-Serif" font-weight="bold" font-size="11.00">“it&#39;s done”</text>
</g>
<!-- o_audit&#45;&gt;t_done -->
<!-- s_plan -->
<g id="node15" class="node">
<title>s_plan</title>
<polygon fill="#e6efe9" stroke="#4f7a6a" stroke-width="1.6" points="986.58,-416.39 879.42,-416.39 879.42,-380.39 992.58,-380.39 992.58,-410.39 986.58,-416.39"/>
<polyline fill="none" stroke="#4f7a6a" stroke-width="1.6" points="986.58,-416.39 986.58,-410.39"/>
<polyline fill="none" stroke="#4f7a6a" stroke-width="1.6" points="992.58,-410.39 986.58,-410.39"/>
<text xml:space="preserve" text-anchor="start" x="889.5" y="-398.94" font-family="Helvetica,sans-Serif" font-weight="bold" font-size="11.00">.planning/</text>
<text xml:space="preserve" text-anchor="start" x="941.25" y="-398.94" font-family="Helvetica,sans-Serif" font-size="11.00"> plan.md</text>
<text xml:space="preserve" text-anchor="start" x="890.25" y="-389.84" font-family="Helvetica,sans-Serif" font-size="9.00">&#45; [ ] </text>
<text xml:space="preserve" text-anchor="start" x="904.5" y="-389.84" font-family="Helvetica,sans-Serif" font-weight="bold" font-size="9.00">N.M</text>
<text xml:space="preserve" text-anchor="start" x="921" y="-389.84" font-family="Helvetica,sans-Serif" font-size="9.00"> steps  &#45; [ ] </text>
<text xml:space="preserve" text-anchor="start" x="963.75" y="-389.84" font-family="Helvetica,sans-Serif" font-weight="bold" font-size="9.00">99.0</text>
</g>
<!-- s_arch -->
<g id="node25" class="node">
<title>s_arch</title>
<polygon fill="#e6efe9" stroke="#4f7a6a" stroke-width="1.6" points="1452.2,-324.52 1339.8,-324.52 1339.8,-288.52 1458.2,-288.52 1458.2,-318.52 1452.2,-324.52"/>
<polyline fill="none" stroke="#4f7a6a" stroke-width="1.6" points="1452.2,-324.52 1452.2,-318.52"/>
<polyline fill="none" stroke="#4f7a6a" stroke-width="1.6" points="1458.2,-318.52 1452.2,-318.52"/>
<text xml:space="preserve" text-anchor="start" x="1352.5" y="-307.07" font-family="Helvetica,sans-Serif" font-weight="bold" font-size="11.00">.planning/archive/</text>
<text xml:space="preserve" text-anchor="start" x="1349.88" y="-297.97" font-family="Helvetica,sans-Serif" font-size="9.00">finished plan, filed away</text>
</g>
<!-- s_plan&#45;&gt;s_arch -->
<!-- t_next -->
<g id="node16" class="node">
<title>t_next</title>
<path fill="#efdfae" stroke="#a8862e" stroke-width="1.6" d="M988.83,-596.02C988.83,-596.02 925.17,-596.02 925.17,-596.02 919.17,-596.02 913.17,-590.02 913.17,-584.02 913.17,-584.02 913.17,-572.02 913.17,-572.02 913.17,-566.02 919.17,-560.02 925.17,-560.02 925.17,-560.02 988.83,-560.02 988.83,-560.02 994.83,-560.02 1000.83,-566.02 1000.83,-572.02 1000.83,-572.02 1000.83,-584.02 1000.83,-584.02 1000.83,-590.02 994.83,-596.02 988.83,-596.02"/>
<text xml:space="preserve" text-anchor="start" x="931.88" y="-579.57" font-family="Helvetica,sans-Serif" font-size="11.00">⌨ you type</text>
<text xml:space="preserve" text-anchor="start" x="923.25" y="-568.57" font-family="Helvetica,sans-Serif" font-weight="bold" font-size="11.00">“next phase”</text>
</g>
<!-- h_phase -->
<g id="node17" class="node">
<title>h_phase</title>
<path fill="white" stroke="#4f7a6a" stroke-width="1.6" d="M1023.33,-510.27C1023.33,-510.27 890.67,-510.27 890.67,-510.27 884.67,-510.27 878.67,-504.27 878.67,-498.27 878.67,-498.27 878.67,-486.27 878.67,-486.27 878.67,-480.27 884.67,-474.27 890.67,-474.27 890.67,-474.27 1023.33,-474.27 1023.33,-474.27 1029.33,-474.27 1035.33,-480.27 1035.33,-486.27 1035.33,-486.27 1035.33,-498.27 1035.33,-498.27 1035.33,-504.27 1029.33,-510.27 1023.33,-510.27"/>
<text xml:space="preserve" text-anchor="start" x="888.75" y="-488.82" font-family="Helvetica,sans-Serif" font-weight="bold" font-size="11.00">phase&#45;transition&#45;reminder</text>
</g>
<!-- t_next&#45;&gt;h_phase -->
<g id="edge13" class="edge">
<title>t_next&#45;&gt;h_phase</title>
<path fill="none" stroke="#9a9182" stroke-width="1.3" d="M957,-559.26C957,-547.93 957,-533.03 957,-520.26"/>
<polygon fill="#9a9182" stroke="#9a9182" stroke-width="1.3" points="959.63,-520.47 957,-512.97 954.38,-520.47 959.63,-520.47"/>
<text xml:space="preserve" text-anchor="middle" x="972.38" y="-531.47" font-family="Helvetica,sans-Serif" font-size="9.00" fill="#5f574b">triggers</text>
</g>
<!-- h_phase&#45;&gt;s_plan -->
<g id="edge14" class="edge">
<title>h_phase&#45;&gt;s_plan</title>
<path fill="none" stroke="#9a9182" stroke-width="1.3" d="M952.95,-473.55C949.87,-460.08 945.58,-441.32 942.09,-426.04"/>
<polygon fill="#9a9182" stroke="#9a9182" stroke-width="1.3" points="944.71,-425.7 940.48,-418.97 939.59,-426.87 944.71,-425.7"/>
<text xml:space="preserve" text-anchor="middle" x="985.26" y="-443.72" font-family="Helvetica,sans-Serif" font-size="9.00" fill="#5f574b">tick finished boxes</text>
</g>
<!-- h_claim -->
<g id="node19" class="node">
<title>h_claim</title>
<path fill="white" stroke="#4f7a6a" stroke-width="1.6" d="M1190.33,-510.27C1190.33,-510.27 1069.67,-510.27 1069.67,-510.27 1063.67,-510.27 1057.67,-504.27 1057.67,-498.27 1057.67,-498.27 1057.67,-486.27 1057.67,-486.27 1057.67,-480.27 1063.67,-474.27 1069.67,-474.27 1069.67,-474.27 1190.33,-474.27 1190.33,-474.27 1196.33,-474.27 1202.33,-480.27 1202.33,-486.27 1202.33,-486.27 1202.33,-498.27 1202.33,-498.27 1202.33,-504.27 1196.33,-510.27 1190.33,-510.27"/>
<text xml:space="preserve" text-anchor="start" x="1067.75" y="-488.82" font-family="Helvetica,sans-Serif" font-weight="bold" font-size="11.00">completion&#45;claim&#45;guard</text>
</g>
<!-- t_done&#45;&gt;h_claim -->
<g id="edge15" class="edge">
<title>t_done&#45;&gt;h_claim</title>
<path fill="none" stroke="#9a9182" stroke-width="1.3" d="M1089.03,-559.26C1096.34,-547.49 1106.04,-531.86 1114.17,-518.77"/>
<polygon fill="#9a9182" stroke="#9a9182" stroke-width="1.3" points="1116.22,-520.43 1117.95,-512.67 1111.76,-517.66 1116.22,-520.43"/>
<text xml:space="preserve" text-anchor="middle" x="1125.43" y="-531.47" font-family="Helvetica,sans-Serif" font-size="9.00" fill="#5f574b">intercepts</text>
</g>
<!-- h_claim&#45;&gt;s_plan -->
<g id="edge16" class="edge">
<title>h_claim&#45;&gt;s_plan</title>
<path fill="none" stroke="#9a9182" stroke-width="1.3" stroke-dasharray="5,2" d="M1092.59,-473.55C1060.93,-458.56 1015.42,-437 981.62,-421"/>
<polygon fill="#9a9182" stroke="#9a9182" stroke-width="1.3" points="982.97,-418.73 975.07,-417.9 980.72,-423.48 982.97,-418.73"/>
<text xml:space="preserve" text-anchor="middle" x="1072.37" y="-443.72" font-family="Helvetica,sans-Serif" font-size="9.00" fill="#5f574b">checks boxes</text>
</g>
<!-- b_done -->
<g id="node20" class="node">
<title>b_done</title>
<polygon fill="#9e3b2e" stroke="black" stroke-width="1.6" points="1143.22,-388.4 1143.22,-408.39 1105.6,-422.52 1052.4,-422.52 1014.78,-408.39 1014.78,-388.4 1052.4,-374.27 1105.6,-374.27 1143.22,-388.4"/>
<text xml:space="preserve" text-anchor="start" x="1051.25" y="-398.94" font-family="Helvetica,sans-Serif" font-weight="bold" font-size="11.00" fill="white">BLOCKED</text>
<text xml:space="preserve" text-anchor="start" x="1047.12" y="-389.84" font-family="Helvetica,sans-Serif" font-size="9.00" fill="#f2d9d2">boxes still open</text>
</g>
<!-- h_claim&#45;&gt;b_done -->
<g id="edge17" class="edge">
<title>h_claim&#45;&gt;b_done</title>
<path fill="none" stroke="#9e3b2e" stroke-width="1.3" d="M1120.17,-473.55C1113.54,-461.61 1104.6,-445.51 1096.75,-431.36"/>
<polygon fill="#9e3b2e" stroke="#9e3b2e" stroke-width="1.3" points="1099.17,-430.31 1093.23,-425.03 1094.57,-432.86 1099.17,-430.31"/>
<text xml:space="preserve" text-anchor="middle" x="1130.05" y="-443.72" font-family="Helvetica,sans-Serif" font-size="9.00" fill="#9e3b2e">if any open</text>
</g>
<!-- t_99 -->
<g id="node21" class="node">
<title>t_99</title>
<path fill="#efdfae" stroke="#a8862e" stroke-width="1.6" d="M1343.08,-596.02C1343.08,-596.02 1280.92,-596.02 1280.92,-596.02 1274.92,-596.02 1268.92,-590.02 1268.92,-584.02 1268.92,-584.02 1268.92,-572.02 1268.92,-572.02 1268.92,-566.02 1274.92,-560.02 1280.92,-560.02 1280.92,-560.02 1343.08,-560.02 1343.08,-560.02 1349.08,-560.02 1355.08,-566.02 1355.08,-572.02 1355.08,-572.02 1355.08,-584.02 1355.08,-584.02 1355.08,-590.02 1349.08,-596.02 1343.08,-596.02"/>
<text xml:space="preserve" text-anchor="start" x="1279" y="-579.57" font-family="Helvetica,sans-Serif" font-size="11.00">✎ flip the final</text>
<text xml:space="preserve" text-anchor="start" x="1291.38" y="-568.57" font-family="Helvetica,sans-Serif" font-weight="bold" font-size="11.00">99.0</text>
<text xml:space="preserve" text-anchor="start" x="1312.38" y="-568.57" font-family="Helvetica,sans-Serif" font-size="11.00"> box</text>
</g>
<!-- h_flip -->
<g id="node22" class="node">
<title>h_flip</title>
<path fill="white" stroke="#4f7a6a" stroke-width="1.6" d="M1374.58,-510.27C1374.58,-510.27 1249.42,-510.27 1249.42,-510.27 1243.42,-510.27 1237.42,-504.27 1237.42,-498.27 1237.42,-498.27 1237.42,-486.27 1237.42,-486.27 1237.42,-480.27 1243.42,-474.27 1249.42,-474.27 1249.42,-474.27 1374.58,-474.27 1374.58,-474.27 1380.58,-474.27 1386.58,-480.27 1386.58,-486.27 1386.58,-486.27 1386.58,-498.27 1386.58,-498.27 1386.58,-504.27 1380.58,-510.27 1374.58,-510.27"/>
<text xml:space="preserve" text-anchor="start" x="1247.5" y="-488.82" font-family="Helvetica,sans-Serif" font-weight="bold" font-size="11.00">plan&#45;complete&#45;flip&#45;guard</text>
</g>
<!-- t_99&#45;&gt;h_flip -->
<g id="edge18" class="edge">
<title>t_99&#45;&gt;h_flip</title>
<path fill="none" stroke="#9a9182" stroke-width="1.3" d="M1312,-559.26C1312,-547.93 1312,-533.03 1312,-520.26"/>
<polygon fill="#9a9182" stroke="#9a9182" stroke-width="1.3" points="1314.63,-520.47 1312,-512.97 1309.38,-520.47 1314.63,-520.47"/>
<text xml:space="preserve" text-anchor="middle" x="1331.88" y="-531.47" font-family="Helvetica,sans-Serif" font-size="9.00" fill="#5f574b">intercepts</text>
</g>
<!-- b_99 -->
<g id="node23" class="node">
<title>b_99</title>
<polygon fill="#9e3b2e" stroke="black" stroke-width="1.6" points="1301.24,-388.4 1301.24,-408.39 1261.27,-422.52 1204.73,-422.52 1164.76,-408.39 1164.76,-388.4 1204.73,-374.27 1261.27,-374.27 1301.24,-388.4"/>
<text xml:space="preserve" text-anchor="start" x="1205.25" y="-398.94" font-family="Helvetica,sans-Serif" font-weight="bold" font-size="11.00" fill="white">BLOCKED</text>
<text xml:space="preserve" text-anchor="start" x="1198.5" y="-389.84" font-family="Helvetica,sans-Serif" font-size="9.00" fill="#f2d9d2">human&#45;only gate</text>
</g>
<!-- h_flip&#45;&gt;b_99 -->
<g id="edge19" class="edge">
<title>h_flip&#45;&gt;b_99</title>
<path fill="none" stroke="#9e3b2e" stroke-width="1.3" d="M1296.77,-473.55C1286.21,-461.27 1271.88,-444.6 1259.47,-430.18"/>
<polygon fill="#9e3b2e" stroke="#9e3b2e" stroke-width="1.3" points="1261.73,-428.77 1254.85,-424.8 1257.75,-432.2 1261.73,-428.77"/>
<text xml:space="preserve" text-anchor="middle" x="1310.23" y="-443.72" font-family="Helvetica,sans-Serif" font-size="9.00" fill="#9e3b2e">unless you OK it</text>
</g>
<!-- h_det -->
<g id="node24" class="node">
<title>h_det</title>
<path fill="white" stroke="#4f7a6a" stroke-width="1.6" d="M1463.08,-416.39C1463.08,-416.39 1334.92,-416.39 1334.92,-416.39 1328.92,-416.39 1322.92,-410.39 1322.92,-404.39 1322.92,-404.39 1322.92,-392.39 1322.92,-392.39 1322.92,-386.39 1328.92,-380.39 1334.92,-380.39 1334.92,-380.39 1463.08,-380.39 1463.08,-380.39 1469.08,-380.39 1475.08,-386.39 1475.08,-392.39 1475.08,-392.39 1475.08,-404.39 1475.08,-404.39 1475.08,-410.39 1469.08,-416.39 1463.08,-416.39"/>
<text xml:space="preserve" text-anchor="start" x="1333" y="-394.94" font-family="Helvetica,sans-Serif" font-weight="bold" font-size="11.00">plan&#45;completion&#45;detector</text>
</g>
<!-- h_flip&#45;&gt;h_det -->
<g id="edge20" class="edge">
<title>h_flip&#45;&gt;h_det</title>
<path fill="none" stroke="#9a9182" stroke-width="1.3" d="M1332.11,-473.48C1339.2,-466.98 1347.12,-459.45 1354,-452.27 1362.47,-443.43 1371.3,-433.28 1378.87,-424.25"/>
<polygon fill="#9a9182" stroke="#9a9182" stroke-width="1.3" points="1380.88,-425.95 1383.65,-418.5 1376.84,-422.59 1380.88,-425.95"/>
<text xml:space="preserve" text-anchor="middle" x="1396.03" y="-443.72" font-family="Helvetica,sans-Serif" font-size="9.00" fill="#5f574b">once authorized</text>
</g>
<!-- h_det&#45;&gt;s_arch -->
<g id="edge21" class="edge">
<title>h_det&#45;&gt;s_arch</title>
<path fill="none" stroke="#9a9182" stroke-width="1.3" d="M1399,-379.64C1399,-366.71 1399,-348.98 1399,-334.34"/>
<polygon fill="#9a9182" stroke="#9a9182" stroke-width="1.3" points="1401.63,-334.71 1399,-327.21 1396.38,-334.71 1401.63,-334.71"/>
<text xml:space="preserve" text-anchor="middle" x="1426.75" y="-345.72" font-family="Helvetica,sans-Serif" font-size="9.00" fill="#5f574b">auto&#45;archives</text>
</g>
<!-- e1 -->
<g id="node26" class="node">
<title>e1</title>
<path fill="#efdfae" stroke="#a8862e" stroke-width="1.6" d="M1607.08,-231.15C1607.08,-231.15 1526.92,-231.15 1526.92,-231.15 1520.92,-231.15 1514.92,-225.15 1514.92,-219.15 1514.92,-219.15 1514.92,-206.13 1514.92,-206.13 1514.92,-200.13 1520.92,-194.13 1526.92,-194.13 1526.92,-194.13 1607.08,-194.13 1607.08,-194.13 1613.08,-194.13 1619.08,-200.13 1619.08,-206.13 1619.08,-206.13 1619.08,-219.15 1619.08,-219.15 1619.08,-225.15 1613.08,-231.15 1607.08,-231.15"/>
<text xml:space="preserve" text-anchor="start" x="1525" y="-214.89" font-family="Helvetica,sans-Serif" font-size="11.00">⌨ a factual claim /</text>
<text xml:space="preserve" text-anchor="start" x="1541.88" y="-202.89" font-family="Helvetica,sans-Serif" font-size="11.00">a proposal</text>
</g>
<!-- s_arch&#45;&gt;e1 -->
<!-- h1 -->
<g id="node27" class="node">
<title>h1</title>
<path fill="white" stroke="#a8862e" stroke-width="1.6" d="M1623.45,-137.88C1623.45,-137.88 1524.55,-137.88 1524.55,-137.88 1518.55,-137.88 1512.55,-131.88 1512.55,-125.88 1512.55,-125.88 1512.55,-113.88 1512.55,-113.88 1512.55,-107.88 1518.55,-101.88 1524.55,-101.88 1524.55,-101.88 1623.45,-101.88 1623.45,-101.88 1629.45,-101.88 1635.45,-107.88 1635.45,-113.88 1635.45,-113.88 1635.45,-125.88 1635.45,-125.88 1635.45,-131.88 1629.45,-137.88 1623.45,-137.88"/>
<text xml:space="preserve" text-anchor="start" x="1522.62" y="-116.43" font-family="Helvetica,sans-Serif" font-weight="bold" font-size="11.00">intellectual&#45;honesty</text>
</g>
<!-- e1&#45;&gt;h1 -->
<g id="edge23" class="edge">
<title>e1&#45;&gt;h1</title>
<path fill="none" stroke="#9a9182" stroke-width="1.3" d="M1568.38,-193.71C1569.4,-180.58 1570.79,-162.52 1571.93,-147.68"/>
<polygon fill="#9a9182" stroke="#9a9182" stroke-width="1.3" points="1574.53,-148.11 1572.49,-140.43 1569.3,-147.71 1574.53,-148.11"/>
</g>
<!-- a1 -->
<g id="node28" class="node">
<title>a1</title>
<text xml:space="preserve" text-anchor="start" x="1522.62" y="-43" font-family="Helvetica,sans-Serif" font-size="11.00" fill="#5f574b">verify before asserting;</text>
<text xml:space="preserve" text-anchor="start" x="1520.75" y="-31" font-family="Helvetica,sans-Serif" font-size="11.00" fill="#5f574b">push back with reasons</text>
</g>
<!-- h1&#45;&gt;a1 -->
<g id="edge24" class="edge">
<title>h1&#45;&gt;a1</title>
<path fill="none" stroke="#9a9182" stroke-width="1.3" d="M1574.68,-101.21C1575.07,-91.14 1575.56,-78.34 1575.99,-67.13"/>
<polygon fill="#9a9182" stroke="#9a9182" stroke-width="1.3" points="1578.61,-67.36 1576.28,-59.77 1573.37,-67.16 1578.61,-67.36"/>
</g>
<!-- e2 -->
<g id="node29" class="node">
<title>e2</title>
<path fill="#efdfae" stroke="#a8862e" stroke-width="1.6" d="M1606.95,-879.93C1606.95,-879.93 1541.05,-879.93 1541.05,-879.93 1535.05,-879.93 1529.05,-873.93 1529.05,-867.93 1529.05,-867.93 1529.05,-854.91 1529.05,-854.91 1529.05,-848.91 1535.05,-842.91 1541.05,-842.91 1541.05,-842.91 1606.95,-842.91 1606.95,-842.91 1612.95,-842.91 1618.95,-848.91 1618.95,-854.91 1618.95,-854.91 1618.95,-867.93 1618.95,-867.93 1618.95,-873.93 1612.95,-879.93 1606.95,-879.93"/>
<text xml:space="preserve" text-anchor="start" x="1539.12" y="-863.67" font-family="Helvetica,sans-Serif" font-size="11.00">⌨ “I can&#39;t view/</text>
<text xml:space="preserve" text-anchor="start" x="1550.75" y="-851.67" font-family="Helvetica,sans-Serif" font-size="11.00">read that”</text>
</g>
<!-- h2 -->
<g id="node30" class="node">
<title>h2</title>
<path fill="white" stroke="#a8862e" stroke-width="1.6" d="M1612.95,-792.79C1612.95,-792.79 1535.05,-792.79 1535.05,-792.79 1529.05,-792.79 1523.05,-786.79 1523.05,-780.79 1523.05,-780.79 1523.05,-768.79 1523.05,-768.79 1523.05,-762.79 1529.05,-756.79 1535.05,-756.79 1535.05,-756.79 1612.95,-756.79 1612.95,-756.79 1618.95,-756.79 1624.95,-762.79 1624.95,-768.79 1624.95,-768.79 1624.95,-780.79 1624.95,-780.79 1624.95,-786.79 1618.95,-792.79 1612.95,-792.79"/>
<text xml:space="preserve" text-anchor="start" x="1533.12" y="-771.34" font-family="Helvetica,sans-Serif" font-weight="bold" font-size="11.00">tool&#45;acquisition</text>
</g>
<!-- e2&#45;&gt;h2 -->
<g id="edge25" class="edge">
<title>e2&#45;&gt;h2</title>
<path fill="none" stroke="#9a9182" stroke-width="1.3" d="M1574,-842.47C1574,-830.95 1574,-815.77 1574,-802.81"/>
<polygon fill="#9a9182" stroke="#9a9182" stroke-width="1.3" points="1576.63,-802.89 1574,-795.39 1571.38,-802.89 1576.63,-802.89"/>
</g>
<!-- a2 -->
<g id="node31" class="node">
<title>a2</title>
<text xml:space="preserve" text-anchor="start" x="1520.75" y="-684.03" font-family="Helvetica,sans-Serif" font-size="11.00" fill="#5f574b">probe → install → use</text>
</g>
<!-- h2&#45;&gt;a2 -->
<g id="edge26" class="edge">
<title>h2&#45;&gt;a2</title>
<path fill="none" stroke="#9a9182" stroke-width="1.3" d="M1574,-756.25C1574,-744.41 1574,-728.56 1574,-715.25"/>
<polygon fill="#9a9182" stroke="#9a9182" stroke-width="1.3" points="1576.63,-715.56 1574,-708.06 1571.38,-715.56 1576.63,-715.56"/>
</g>
<!-- e3 -->
<g id="node32" class="node">
<title>e3</title>
<path fill="#efdfae" stroke="#a8862e" stroke-width="1.6" d="M1748.45,-880.31C1748.45,-880.31 1673.55,-880.31 1673.55,-880.31 1667.55,-880.31 1661.55,-874.31 1661.55,-868.31 1661.55,-868.31 1661.55,-854.54 1661.55,-854.54 1661.55,-848.54 1667.55,-842.54 1673.55,-842.54 1673.55,-842.54 1748.45,-842.54 1748.45,-842.54 1754.45,-842.54 1760.45,-848.54 1760.45,-854.54 1760.45,-854.54 1760.45,-868.31 1760.45,-868.31 1760.45,-874.31 1754.45,-880.31 1748.45,-880.31"/>
<text xml:space="preserve" text-anchor="start" x="1671.62" y="-863.3" font-family="Helvetica,sans-Serif" font-size="11.00">✎ a secret value</text>
<text xml:space="preserve" text-anchor="start" x="1691.5" y="-851.3" font-family="Helvetica,sans-Serif" font-size="11.00">appears</text>
</g>
<!-- h3 -->
<g id="node33" class="node">
<title>h3</title>
<path fill="white" stroke="#a8862e" stroke-width="1.6" d="M1755.2,-792.79C1755.2,-792.79 1666.8,-792.79 1666.8,-792.79 1660.8,-792.79 1654.8,-786.79 1654.8,-780.79 1654.8,-780.79 1654.8,-768.79 1654.8,-768.79 1654.8,-762.79 1660.8,-756.79 1666.8,-756.79 1666.8,-756.79 1755.2,-756.79 1755.2,-756.79 1761.2,-756.79 1767.2,-762.79 1767.2,-768.79 1767.2,-768.79 1767.2,-780.79 1767.2,-780.79 1767.2,-786.79 1761.2,-792.79 1755.2,-792.79"/>
<text xml:space="preserve" text-anchor="start" x="1664.88" y="-771.34" font-family="Helvetica,sans-Serif" font-weight="bold" font-size="11.00">secrets&#45;discipline</text>
</g>
<!-- e3&#45;&gt;h3 -->
<g id="edge27" class="edge">
<title>e3&#45;&gt;h3</title>
<path fill="none" stroke="#9a9182" stroke-width="1.3" d="M1711,-842.06C1711,-830.59 1711,-815.62 1711,-802.82"/>
<polygon fill="#9a9182" stroke="#9a9182" stroke-width="1.3" points="1713.63,-803 1711,-795.5 1708.38,-803 1713.63,-803"/>
</g>
<!-- a3 -->
<g id="node34" class="node">
<title>a3</title>
<text xml:space="preserve" text-anchor="start" x="1669.75" y="-691.15" font-family="Helvetica,sans-Serif" font-size="11.00" fill="#5f574b">name it, never echo</text>
<text xml:space="preserve" text-anchor="start" x="1695.25" y="-679.15" font-family="Helvetica,sans-Serif" font-size="11.00" fill="#5f574b">the value</text>
</g>
<!-- h3&#45;&gt;a3 -->
<g id="edge28" class="edge">
<title>h3&#45;&gt;a3</title>
<path fill="none" stroke="#9a9182" stroke-width="1.3" d="M1712.24,-756.25C1713.08,-744.41 1714.21,-728.56 1715.15,-715.25"/>
<polygon fill="#9a9182" stroke="#9a9182" stroke-width="1.3" points="1717.75,-715.72 1715.66,-708.05 1712.51,-715.35 1717.75,-715.72"/>
</g>
<!-- e4 -->
<g id="node35" class="node">
<title>e4</title>
<path fill="#efdfae" stroke="#a8862e" stroke-width="1.6" d="M1887.45,-879.42C1887.45,-879.42 1830.55,-879.42 1830.55,-879.42 1824.55,-879.42 1818.55,-873.42 1818.55,-867.42 1818.55,-867.42 1818.55,-855.42 1818.55,-855.42 1818.55,-849.42 1824.55,-843.42 1830.55,-843.42 1830.55,-843.42 1887.45,-843.42 1887.45,-843.42 1893.45,-843.42 1899.45,-849.42 1899.45,-855.42 1899.45,-855.42 1899.45,-867.42 1899.45,-867.42 1899.45,-873.42 1893.45,-879.42 1887.45,-879.42"/>
<text xml:space="preserve" text-anchor="start" x="1828.62" y="-862.97" font-family="Helvetica,sans-Serif" font-size="11.00">⌨ </text>
<text xml:space="preserve" text-anchor="start" x="1842.12" y="-862.97" font-family="Helvetica,sans-Serif" font-weight="bold" font-size="11.00">git mv</text>
<text xml:space="preserve" text-anchor="start" x="1874.38" y="-862.97" font-family="Helvetica,sans-Serif" font-size="11.00"> an</text>
<text xml:space="preserve" text-anchor="start" x="1836.12" y="-851.97" font-family="Helvetica,sans-Serif" font-size="11.00">edited file</text>
</g>
<!-- h4 -->
<g id="node36" class="node">
<title>h4</title>
<path fill="white" stroke="#a8862e" stroke-width="1.6" d="M1917.08,-792.79C1917.08,-792.79 1800.92,-792.79 1800.92,-792.79 1794.92,-792.79 1788.92,-786.79 1788.92,-780.79 1788.92,-780.79 1788.92,-768.79 1788.92,-768.79 1788.92,-762.79 1794.92,-756.79 1800.92,-756.79 1800.92,-756.79 1917.08,-756.79 1917.08,-756.79 1923.08,-756.79 1929.08,-762.79 1929.08,-768.79 1929.08,-768.79 1929.08,-780.79 1929.08,-780.79 1929.08,-786.79 1923.08,-792.79 1917.08,-792.79"/>
<text xml:space="preserve" text-anchor="start" x="1799" y="-771.34" font-family="Helvetica,sans-Serif" font-weight="bold" font-size="11.00">git&#45;mv&#45;unstaged&#45;guard</text>
</g>
<!-- e4&#45;&gt;h4 -->
<g id="edge29" class="edge">
<title>e4&#45;&gt;h4</title>
<path fill="none" stroke="#9a9182" stroke-width="1.3" d="M1859,-842.89C1859,-831.2 1859,-815.61 1859,-802.41"/>
<polygon fill="#9a9182" stroke="#9a9182" stroke-width="1.3" points="1861.63,-802.77 1859,-795.27 1856.38,-802.77 1861.63,-802.77"/>
</g>
<!-- a4 -->
<g id="node37" class="node">
<title>a4</title>
<text xml:space="preserve" text-anchor="start" x="1806.75" y="-691.15" font-family="Helvetica,sans-Serif" font-size="11.00" fill="#5f574b">stages the OLD blob —</text>
<text xml:space="preserve" text-anchor="start" x="1811.25" y="-679.15" font-family="Helvetica,sans-Serif" font-size="11.00" fill="#5f574b">re&#45;add after the move</text>
</g>
<!-- h4&#45;&gt;a4 -->
<g id="edge30" class="edge">
<title>h4&#45;&gt;a4</title>
<path fill="none" stroke="#9a9182" stroke-width="1.3" d="M1859.83,-756.25C1860.39,-744.41 1861.14,-728.56 1861.77,-715.25"/>
<polygon fill="#9a9182" stroke="#9a9182" stroke-width="1.3" points="1864.37,-715.67 1862.11,-708.05 1859.13,-715.42 1864.37,-715.67"/>
</g>
</g>
</svg>
